<svg xmlns="http://www.w3.org/2000/svg" style="display: none;">
  
    <symbol id="icon-bao-llnstudio-icon-bao-llnstudio-arrow-left" viewBox="0 0 512 512">
      <path d="m0 254c0 16 12 29 12 29l140 142c14 14 36 14 49 0 14-14 14-36 0-50l-87-87 364 0c19 0 34-15 34-34 0-18-15-34-34-34l-362 0 85-85c14-14 14-36 0-50-13-13-35-13-49 0l-138 137c0 2-14 17-14 32z"/>
    </symbol>
  
    <symbol id="icon-bao-llnstudio-icon-bao-llnstudio-arrow-right" viewBox="0 0 512 512">
      <path d="m512 258c0-16-12-29-12-29l-140-142c-14-14-36-14-49 0-14 14-14 36 0 50l87 87-364 0c-19 0-34 15-34 34 0 18 15 34 34 34l362 0-85 85c-14 14-14 36 0 50 13 13 35 13 49 0l138-137c0-2 14-17 14-32z"/>
    </symbol>
  
    <symbol id="icon-bao-llnstudio-icon-bao-llnstudio-home" viewBox="0 0 512 512">
      <path d="m208 20c28-27 70-27 97 0l193 193c33 33 9 74-37 74l0 181c0 25-21 46-45 46l-319 0c-25 0-44-21-44-46l0-185c-44 0-70-37-38-70l65-65 0-76c0-12 10-23 22-23l31 0c12 0 22 11 22 23z m31 33l-188 186 22 0c12 0 23 10 23 22 0 0 0 205 0 205 0 0 41 0 92 0 0-2 0-2 0-3l0-159c0-12 10-22 22-22l90 0c12 0 23 10 23 22l0 159c0 1 0 1 0 3 51 0 92 0 92 0l0-205c0-12 10-22 22-22l22 0-188-186c-8-10-22-10-32 0z"/>
    </symbol>
  
</svg>
