<?xml version="1.0" encoding="UTF-8"?>
<svg width="23px" height="23px" viewBox="0 0 23 23" version="1.1" xmlns="http://www.w3.org/2000/svg" xmlns:xlink="http://www.w3.org/1999/xlink">
    <!-- Generator: Sketch 50.2 (55047) - http://www.bohemiancoding.com/sketch -->
    <title>Times</title>
    <desc>Created with Sketch.</desc>
    <defs></defs>
    <g id="LEERLING_HOME_versie1-Copy" stroke="none" stroke-width="1" fill="none" fill-rule="evenodd">
        <g id="12_B-LLN__IS_end-alert-overlay-Copy" transform="translate(-1363.000000, -96.000000)" fill="#FFFFFF">
            <path d="M1374.19617,104.36774 L1381.98027,96.5836375 C1382.75804,95.8058627 1384.01627,95.8030713 1384.80277,96.5895652 C1385.58382,97.3706138 1385.58211,98.6386478 1384.8087,99.4120647 L1377.02459,107.196167 L1384.8087,114.980269 C1385.58647,115.758044 1385.58926,117.016275 1384.80277,117.802769 C1384.02172,118.583817 1382.75369,118.582113 1381.98027,117.808696 L1374.19617,110.024594 L1366.41206,117.808696 C1365.63429,118.586471 1364.37606,118.589263 1363.58957,117.802769 C1362.80852,117.02172 1362.81022,115.753686 1363.58364,114.980269 L1371.36774,107.196167 L1363.58364,99.4120647 C1362.80586,98.6342898 1362.80307,97.3760591 1363.58957,96.5895652 C1364.37061,95.8085166 1365.63865,95.8102207 1366.41206,96.5836375 L1374.19617,104.36774 Z" id="Times"></path>
        </g>
    </g>
</svg>