<?xml version="1.0" encoding="utf-8"?>
<!-- Generator: Adobe Illustrator 21.1.0, SVG Export Plug-In . SVG Version: 6.00 Build 0)  -->
<svg version="1.1" id="Layer_1" xmlns="http://www.w3.org/2000/svg" xmlns:xlink="http://www.w3.org/1999/xlink" x="0px" y="0px"
	 viewBox="0 0 30 30" style="enable-background:new 0 0 30 30;" xml:space="preserve">
<style type="text/css">
	.st0{fill:#FFFFFF;}
</style>
<title>Home</title>
<desc>Created with Sketch.</desc>
<g id="LEERLING_HOME_versie1">
	<g id="B-LLN_welcome" transform="translate(-45.000000, -169.000000)">
		<path id="Home" class="st0" d="M57.2,170.2c1.6-1.6,4.1-1.6,5.7,0l11.3,11.3c1.9,1.9,0.5,4.3-2.2,4.3l0,10.6
			c0,1.5-1.2,2.7-2.6,2.7H50.7c-1.5,0-2.6-1.2-2.6-2.7v-10.8c-2.6,0-4.1-2.2-2.2-4.1l3.8-3.8v-4.5c0-0.7,0.6-1.3,1.3-1.3h1.8
			c0.7,0,1.3,0.6,1.3,1.3L57.2,170.2L57.2,170.2z M59,172.1L48,183l1.3,0c0.7,0,1.3,0.6,1.3,1.3c0,0,0,12,0,12c0,0,2.4,0,5.4,0
			c0-0.1,0-0.1,0-0.2v-9.3c0-0.7,0.6-1.3,1.3-1.3h5.3c0.7,0,1.3,0.6,1.3,1.3v9.3c0,0.1,0,0.1,0,0.2c3,0,5.4,0,5.4,0l0-12
			c0-0.7,0.6-1.3,1.3-1.3h1.3l-11-10.9C60.4,171.5,59.6,171.5,59,172.1z"/>
	</g>
</g>
</svg>
