<?xml version="1.0" encoding="UTF-8"?>
<svg width="189px" height="111px" viewBox="0 0 189 111" version="1.1" xmlns="http://www.w3.org/2000/svg" xmlns:xlink="http://www.w3.org/1999/xlink">
    <!-- Generator: Sketch 49.3 (51167) - http://www.bohemiancoding.com/sketch -->
    <title>Page 1</title>
    <desc>Created with Sketch.</desc>
    <defs></defs>
    <g id="LEERLING_HOME_versie1-Copy" stroke="none" stroke-width="1" fill="none" fill-rule="evenodd">
        <g id="01_B-LLN__homemethodpicker" transform="translate(-960.000000, -522.000000)">
            <g id="TEGEL_FRANS" transform="translate(897.000000, 468.000000)">
                <g id="Page-1" transform="translate(63.828947, 54.977528)">
                    <path d="M44.3897075,106.779969 C63.0830055,113.956364 83.7498258,103.796839 90.5508739,84.0884417 C97.3519221,64.3795975 87.7113533,42.5850643 69.0180552,35.4091152 C50.3247572,28.2331662 29.6579369,38.3917978 22.8568888,58.100642 C16.0558407,77.8090396 25.6964095,99.6040194 44.3897075,106.779969" id="Fill-1" fill="#6F9DD3"></path>
                    <path d="M113.06857,92.7634147 C115.229414,86.4912112 106.909933,77.0491557 92.5650307,67.9258288 C92.9906449,73.2476577 92.364992,78.7474025 90.522508,84.0947119 C88.4838159,90.0119777 71.6903554,88.9865031 53.0127006,81.8050514 C34.3354715,74.6240468 20.8469054,64.0058693 22.885172,58.0890504 C24.727656,52.7412941 27.5954446,48.1038599 31.1595382,44.3166667 C14.6188925,41.5629946 2.50037858,43.1472501 0.339535147,49.4203476 C-3.05771761,59.2817123 19.4228002,76.9780788 50.5522248,88.9476119 C81.6807981,100.915804 109.670892,102.625226 113.06857,92.7634147" id="Fill-3" fill="#0069B3"></path>
                    <path d="M117.735706,48.6951829 C117.735706,47.1256657 116.686329,39.4350315 108.51618,39.4350315 C103.644072,39.4350315 98.9968315,42.49559 98.9968315,50.5001276 C98.9968315,57.1705756 103.119384,60.7019892 108.590709,60.7019892 C114.212797,60.7019892 116.910769,57.1705756 116.910769,55.9149619 C116.910769,54.9732516 115.861818,53.8745895 114.362708,53.8745895 C112.413865,53.8745895 111.888751,56.6212446 108.666091,56.6212446 C106.717248,56.6212446 104.768405,54.737824 104.768405,53.0113551 C104.768405,51.6772655 105.667871,51.2848862 107.391847,51.2848862 L115.187219,51.2848862 C116.985725,51.2848862 117.735706,50.5001276 117.735706,48.6951829 M105.068227,46.0270037 C105.068227,44.6144382 107.01707,43.6727279 108.51618,43.6727279 C110.315112,43.6727279 111.888751,44.9283416 111.888751,46.1839554 C111.888751,47.2826174 110.614508,47.8319484 108.141402,47.8319484 C106.117604,47.8319484 105.068227,47.2041415 105.068227,46.0270037 M112.226051,33.9417214 C112.226051,33.3139145 111.701788,32.8430594 110.277208,32.8430594 C108.403746,32.8430594 107.729147,33.5493421 107.054547,34.3341007 C106.155081,35.3542869 105.780304,36.4529489 105.780304,36.923804 C105.780304,37.6300868 106.304992,38.1009419 107.204033,38.1009419 C108.628187,38.1009419 109.67799,37.1592316 110.5025,36.374473 C111.551451,35.4327627 112.226051,34.5695283 112.226051,33.9417214 M119.482254,44.2612968 C120.081898,45.0460554 120.306764,46.2231933 120.231383,47.7927105 L120.231383,54.8555378 C120.231383,58.700409 122.330563,60.6627513 126.453115,60.6627513 C128.476913,60.6627513 129.451335,59.7995169 129.451335,58.1515238 C129.451335,55.7972481 126.977804,55.7972481 126.37816,54.4631585 C126.078338,53.8353516 125.928001,53.4429723 125.928001,52.1088827 L125.928001,47.5572829 C125.928001,46.2231933 125.853471,45.7523381 126.227823,44.8891037 C126.902422,43.3195865 129.226043,43.5550141 129.226043,41.6715935 C129.226043,39.7881729 127.052759,39.7881729 126.453115,38.8464626 C126.078338,38.2186557 125.928001,37.4338971 125.928001,36.6491385 C125.928001,35.5504765 125.70356,33.7455318 123.080118,33.7455318 C120.38172,33.7455318 120.156853,35.7074282 120.156853,36.5706627 C120.156853,37.4338971 120.156853,37.8262764 119.782076,38.6895109 C119.482254,39.4742695 117.532985,40.259028 117.532985,41.5931176 C117.532985,42.9272072 118.882184,43.4765382 119.482254,44.2612968 M150.401396,50.1077483 C150.401396,42.3386383 144.854689,39.5919832 140.057538,39.5919832 C134.810653,39.5919832 129.788635,42.8094934 129.788635,50.1862242 C129.788635,57.0920997 134.211009,60.7804651 139.907627,60.7804651 C146.953017,60.7804651 150.401396,56.1503894 150.401396,50.1077483 M135.110475,50.1077483 C135.110475,46.0270037 137.35914,43.8296796 140.132493,43.8296796 C143.280198,43.8296796 145.079556,46.5763347 145.079556,50.1077483 C145.079556,53.8745895 142.980376,56.6212446 140.132493,56.6212446 C137.134273,56.6212446 135.110475,53.8745895 135.110475,50.1077483 M155.857816,39.5135074 L154.508617,39.5135074 C153.159418,39.5135074 152.259526,40.6121694 152.259526,42.3386383 L152.259526,57.0136239 C152.259526,59.2894238 152.709685,60.4661158 155.257746,60.4661158 C157.281544,60.4661158 158.256391,59.5248514 158.256391,57.6414307 L158.256391,42.9664452 C158.256391,40.6906453 157.431881,39.5135074 155.857816,39.5135074 M158.181436,34.72648 C158.181436,33.3923904 157.3565,32.3722042 155.183216,32.3722042 C153.608725,32.3722042 152.259526,32.9215352 152.259526,34.8834317 C152.259526,36.2175213 153.009081,37.2377075 155.183216,37.2377075 C156.832237,37.2377075 158.181436,36.6883765 158.181436,34.72648 M164.29329,32.5683939 L163.094428,32.5683939 C161.745229,32.5683939 160.845763,33.6670559 160.845763,35.0796214 L160.845763,57.523717 C160.845763,59.5640893 161.670274,60.4273237 163.918513,60.4273237 C165.792826,60.4273237 166.692292,59.5640893 166.692292,57.9160963 L166.692292,35.4720007 C166.692292,33.5101042 165.867781,32.5683939 164.29329,32.5683939 M187.342105,48.6951829 C187.342105,47.1256657 186.293154,39.4350315 178.123005,39.4350315 C173.250898,39.4350315 168.603231,42.49559 168.603231,50.5001276 C168.603231,57.1705756 172.726209,60.7019892 178.197961,60.7019892 C183.819623,60.7019892 186.518021,57.1705756 186.518021,55.9149619 C186.518021,54.9732516 185.168822,53.8745895 183.969534,53.8745895 C182.020265,53.8745895 181.496002,56.6212446 178.272916,56.6212446 C176.323647,56.6212446 174.37523,54.737824 174.37523,53.0113551 C174.37523,51.6772655 175.27427,50.9709828 176.998247,50.9709828 L184.794044,50.9709828 C186.592976,50.9709828 187.342105,50.5001276 187.342105,48.6951829 M174.674626,46.0270037 C174.674626,44.6144382 176.623469,43.5157762 178.123005,43.5157762 C179.921937,43.5157762 181.496002,44.9283416 181.496002,46.1839554 C181.496002,47.2826174 180.221759,47.8319484 177.748228,47.8319484 C175.724429,47.8319484 174.674626,47.2041415 174.674626,46.0270037" id="Fill-5" fill="#FCC200"></path>
                    <path d="M81.6485874,14.5916813 C81.6485874,6.94470395 76.7912822,0.936364577 68.8701383,0.936364577 C62.1446387,0.936364577 56.3906002,6.08636975 56.3906002,14.7477421 C56.3906002,22.2386587 61.0984499,28.4810892 69.0195938,28.4810892 C71.4108825,28.4810892 74.1010823,27.3886639 75.1472712,27.3886639 C75.8198211,27.3886639 76.4923711,27.622755 77.2396488,28.0129069 C79.9298486,29.5735146 80.3782152,29.7295753 81.0507652,29.7295753 C82.1716818,29.7295753 82.8442317,28.7151804 82.8442317,27.7788158 C82.8442317,26.7644208 81.7980429,26.1401778 80.6771263,25.4379043 C80.0793041,25.0477524 79.7056653,24.345479 79.7056653,23.4871448 C79.7056653,21.5363853 81.6485874,19.7416865 81.6485874,14.5916813 M61.4720888,14.5916813 C61.4720888,8.34925081 64.685383,5.22803555 69.0195938,5.22803555 C73.2043491,5.22803555 76.5670988,8.66137234 76.5670988,14.6697117 C76.5670988,20.4439599 73.3538046,24.1894182 68.7206827,24.1894182 C64.3864719,24.1894182 61.4720888,20.2098688 61.4720888,14.5916813 M89.7336229,28.4030588 C92.7227338,28.4030588 92.5732782,27.3886639 94.8151114,27.3886639 C96.3096668,27.3886639 96.3096668,27.8568462 98.4020445,27.8568462 C99.9713277,27.8568462 101.092244,27.1545727 101.092244,25.6719955 L101.092244,10.22198 C101.092244,8.58334196 100.419694,7.80303814 98.9998666,7.80303814 L98.1778612,7.80303814 C96.6085779,7.80303814 95.8613002,8.50531157 95.8613002,9.98788882 L95.8613002,18.1810789 C95.8613002,21.9265372 94.6656558,23.7992663 92.3490949,23.7992663 C90.1072617,23.7992663 89.359984,22.1606283 89.359984,18.8053219 L89.359984,9.98788882 C89.359984,8.50531157 88.3885229,7.80303814 87.2676064,7.80303814 L86.071962,7.80303814 C85.0257732,7.80303814 84.1290399,8.58334196 84.1290399,9.98788882 L84.1290399,22.6288106 C84.1290399,26.2182082 86.071962,28.4030588 89.7336229,28.4030588 M120.005589,25.7890411 L120.005589,14.0844838 C120.005589,8.46629638 116.867022,7.21781028 111.636078,7.21781028 C105.657856,7.21781028 104.088573,10.1829648 104.088573,11.5875116 C104.088573,12.9140281 105.20949,13.1481193 106.255679,13.1481193 C109.394245,13.1481193 109.170062,10.5731167 112.009717,10.5731167 C113.429545,10.5731167 114.625189,11.5875116 114.625189,13.1481193 C114.625189,14.0064535 113.877911,15.0208484 111.411895,15.3329699 C105.358945,16.1913041 102.668746,18.8443371 102.668746,22.3557043 C102.668746,25.7890411 104.910579,28.2860133 109.095334,28.2860133 C111.636078,28.2860133 112.831723,27.0375272 114.550461,27.0375272 C115.521922,27.0375272 116.2692,27.7398006 117.838483,27.7398006 C119.108855,27.7398006 120.005589,27.3496487 120.005589,25.7890411 M108.123448,21.8094916 C108.123448,19.6246409 111.262439,18.5322156 112.831723,18.5322156 C114.176823,18.5322156 114.699917,19.3905498 114.699917,20.4049447 C114.699917,22.4337347 112.756995,24.3064638 110.814073,24.3064638 C109.170062,24.3064638 108.123448,23.1360081 108.123448,21.8094916 M129.447188,7.9590989 C128.550455,7.9590989 127.653722,7.10076471 125.337161,7.10076471 C123.095327,7.10076471 122.497505,8.19319005 122.497505,10.1439496 L122.497505,24.7356309 C122.497505,26.7644208 123.244783,27.8568462 124.664611,27.8568462 L126.159166,27.8568462 C127.728449,27.8568462 128.475727,26.8424512 128.475727,24.8916917 L128.475727,16.8545624 C128.475727,15.0598636 129.447188,13.6553167 131.39011,13.0310737 C133.40776,12.4068306 133.856127,11.6265268 133.856127,9.75379768 C133.856127,8.27122043 133.258304,7.49091662 131.987932,7.49091662 C130.867016,7.49091662 130.568105,7.9590989 129.447188,7.9590989 M136.314501,11.8216028 C136.912323,12.6019066 137.136506,13.7723623 137.061778,15.3329699 L137.061778,22.3557043 C137.061778,26.179193 139.153731,28.1299525 143.264183,28.1299525 C145.281833,28.1299525 146.253294,27.2716183 146.253294,25.6329803 C146.253294,23.2920689 143.787278,23.2920689 143.189456,21.9655524 C142.890545,21.3413093 142.741089,20.9511574 142.741089,19.6246409 L142.741089,15.0988788 C142.741089,13.7723623 142.666361,13.30418 143.04,12.4458458 C143.71255,10.8852382 146.029111,11.1193294 146.029111,9.2466002 C146.029111,7.37387104 143.862006,7.37387104 143.264183,6.43750647 C142.890545,5.81326342 142.741089,5.0329596 142.741089,4.25265579 C142.741089,3.16023045 142.516906,1.36553167 139.901434,1.36553167 C137.211234,1.36553167 136.98705,3.31629121 136.98705,4.17462541 C136.98705,5.0329596 136.98705,5.42311151 136.613412,6.2814457 C136.314501,7.06174952 134.371578,7.84205333 134.371578,9.16856982 C134.371578,10.4950863 135.716678,11.041299 136.314501,11.8216028 M151.338604,7.10076471 L149.993504,7.10076471 C148.648404,7.10076471 147.751671,8.19319005 147.751671,9.90985844 L147.751671,24.5015398 C147.751671,26.7644208 148.200038,27.9348765 150.740782,27.9348765 C152.758432,27.9348765 153.729893,26.998512 153.729893,25.1257828 L153.729893,10.5341015 C153.729893,8.27122043 152.907887,7.10076471 151.338604,7.10076471 M153.655165,2.34091144 C153.655165,1.01439496 152.83316,0 150.666054,0 C149.096346,0 147.751671,0.54621267 147.751671,2.49697221 C147.751671,3.82348869 148.498949,4.83788365 150.666054,4.83788365 C152.310065,4.83788365 153.655165,4.29167098 153.655165,2.34091144 M174.272388,16.2303193 C174.272388,14.6697117 173.226199,7.02273433 165.080872,7.02273433 C160.223566,7.02273433 155.590445,10.0659192 155.590445,18.0250181 C155.590445,24.6576005 159.700472,28.1689677 165.155599,28.1689677 C170.760182,28.1689677 173.450382,24.6576005 173.450382,23.4091144 C173.450382,22.4727498 172.105282,21.3803245 170.909638,21.3803245 C168.966716,21.3803245 168.443621,24.1113879 165.230327,24.1113879 C163.287405,24.1113879 161.344483,22.2386587 161.344483,20.5219903 C161.344483,19.1954738 162.240792,18.4932004 163.959955,18.4932004 L171.731643,18.4932004 C173.52511,18.4932004 174.272388,18.0250181 174.272388,16.2303193 M161.643394,13.5772864 C161.643394,12.1727395 163.585892,11.0803142 165.080872,11.0803142 C166.874338,11.0803142 168.443621,12.484861 168.443621,13.7333471 C168.443621,14.8257725 167.173249,15.3719851 164.707233,15.3719851 C162.689583,15.3719851 161.643394,14.7477421 161.643394,13.5772864 M182.933167,7.9590989 C182.036433,7.9590989 181.1397,7.10076471 178.823139,7.10076471 C176.581306,7.10076471 175.983484,8.19319005 175.983484,10.1439496 L175.983484,24.7356309 C175.983484,26.7644208 176.730337,27.8568462 178.150589,27.8568462 L179.645145,27.8568462 C181.214428,27.8568462 181.961706,26.8424512 181.961706,24.8916917 L181.961706,16.8545624 C181.961706,15.0598636 182.933167,13.6553167 184.876089,13.0310737 C186.893739,12.4068306 187.342105,11.6265268 187.342105,9.75379768 C187.342105,8.27122043 186.743858,7.49091662 185.473911,7.49091662 C184.352994,7.49091662 184.054083,7.9590989 182.933167,7.9590989" id="Fill-7" fill="#FCC200"></path>
                </g>
            </g>
        </g>
    </g>
</svg>