<?xml version="1.0" encoding="utf-8"?>
<!-- Generator: Adobe Illustrator 21.1.0, SVG Export Plug-In . SVG Version: 6.00 Build 0)  -->
<svg version="1.1" id="Layer_1" xmlns="http://www.w3.org/2000/svg" xmlns:xlink="http://www.w3.org/1999/xlink" x="0px" y="0px"
	 viewBox="0 0 24 24" style="enable-background:new 0 0 24 24;" xml:space="preserve">
<title>Group</title>
<desc>Created with Sketch.</desc>
<g>
	<path d="M12,0C5.4,0,0,5.4,0,12c0,6.6,5.4,12,12,12s12-5.4,12-12C24,5.4,18.6,0,12,0z M12,22.5C6.2,22.5,1.4,17.8,1.4,12
		C1.4,6.2,6.2,1.4,12,1.4S22.6,6.2,22.6,12C22.6,17.8,17.8,22.5,12,22.5z"/>
	<path d="M11.7,4.9c-1.9,0-3.2,0.5-3.7,1C7.9,6.4,9,8.3,9,8.3s0.9-0.6,2.2-0.6c1.2,0,1.6,0.7,1.6,1.3c0,1-1.2,1.5-3,1.5
		c0,0,0,3,0.2,3.2c0.7,0.1,1.7,0.1,2.3,0l0.1-1.1C14.3,12.3,16,11,16,8.7C16,6.2,14,4.9,11.7,4.9z"/>
	<path d="M11.1,15C9.9,15,9,15.8,9,16.9c0,1.4,0.9,2.2,2.1,2.2c1.7,0,2.1-0.9,2.1-2.1C13.1,15.7,12.3,15,11.1,15z"/>
</g>
<text transform="matrix(1 0 0 1 1077.165 1417.3248)" style="font-family:'MyriadPro-Regular'; font-size:12px;">padding: 10px 0;</text>
</svg>
