<?xml version="1.0" encoding="utf-8"?>
<!-- Generator: Adobe Illustrator 21.1.0, SVG Export Plug-In . SVG Version: 6.00 Build 0)  -->
<svg version="1.1" id="Layer_1" xmlns="http://www.w3.org/2000/svg" xmlns:xlink="http://www.w3.org/1999/xlink" x="0px" y="0px"
	 viewBox="0 0 19 19" style="enable-background:new 0 0 19 19;" xml:space="preserve">
<title>Fill 21</title>
<desc>Created with Sketch.</desc>
<g id="LEERLING_HOME_versie1-Copy_1_">
	<g id="_x31_2_x5F_B-LLN_x5F__x5F_IS_x5F_close-alert-overlay" transform="translate(-821.000000, -671.000000)">
		<g>
			<path d="M831.9,672.2c0.1-0.6,0.6-1.1,1.3-1.1h5.4c0.7,0,1.3,0.6,1.3,1.3s-0.6,1.3-1.3,1.3H837c1.8,1.8,2.9,4.2,2.9,6.8
				c0,5.2-4.2,9.5-9.5,9.5s-9.5-4.2-9.5-9.5c0-4.8,3.6-8.8,8.3-9.4l0.9-0.1v2.6l-0.7,0.1c-3.3,0.5-5.8,3.4-5.8,6.7
				c0,3.8,3.1,6.8,6.8,6.8s6.8-3.1,6.8-6.8c0-2.2-1.1-4.2-2.8-5.5v2.8c0,0.7-0.6,1.3-1.3,1.3c-0.7,0-1.3-0.6-1.3-1.3v-5.4
				C831.9,672.3,831.9,672.2,831.9,672.2z"/>
		</g>
	</g>
</g>
</svg>
