<?xml version="1.0" encoding="utf-8"?>
<!-- Generator: Adobe Illustrator 21.1.0, SVG Export Plug-In . SVG Version: 6.00 Build 0)  -->
<svg version="1.1" id="Layer_1" xmlns="http://www.w3.org/2000/svg" xmlns:xlink="http://www.w3.org/1999/xlink" x="0px" y="0px"
	 viewBox="0 0 30 21" style="enable-background:new 0 0 30 21;" xml:space="preserve">
<style type="text/css">
	.st0{fill:#FCC200;}
</style>
<title>Arrow Left</title>
<desc>Created with Sketch.</desc>
<g id="LEERLING_HOME_versie1">
	<g id="B-LLN_welcome" transform="translate(-466.000000, -755.000000)">
		<path id="Arrow-Left" class="st0" d="M466,765.4c0,0.9,0.7,1.7,0.7,1.7l8.2,8.3c0.8,0.8,2.1,0.8,2.9,0c0.8-0.8,0.8-2.1,0-2.9
			l-5.1-5.1H494c1.1,0,2-0.9,2-2c0-1.1-0.9-2-2-2h-21.2l5-5c0.8-0.8,0.8-2.1,0-2.9c-0.8-0.8-2.1-0.8-2.9,0l-8.1,8
			C466.8,763.6,466,764.5,466,765.4z"/>
	</g>
</g>
</svg>
