<?xml version="1.0" encoding="utf-8"?>
<!-- Generator: Adobe Illustrator 21.1.0, SVG Export Plug-In . SVG Version: 6.00 Build 0)  -->
<svg version="1.1" id="Layer_1" xmlns="http://www.w3.org/2000/svg" xmlns:xlink="http://www.w3.org/1999/xlink" x="0px" y="0px"
	 viewBox="0 0 182 90" style="enable-background:new 0 0 182 90;" xml:space="preserve">
<style type="text/css">
	.st0{fill:#FCC200;}
	.st1{fill:#004F91;}
	.st2{fill:#C5193D;}
</style>
<title>Page 1</title>
<desc>Created with Sketch.</desc>
<g id="LEERLING_HOME_versie1-Copy">
	<g id="_x30_1_x5F_B-LLN_x5F__x5F_homemethodpicker" transform="translate(-303.000000, -523.000000)">
		<g id="TEGEL_MIKADO" transform="translate(233.000000, 468.000000)">
			<g id="Page-1" transform="translate(70.460526, 54.977528)">
				<path id="Fill-1" class="st0" d="M66.9,32.4c3.2-0.7,4.7-3.5,4-6.2c-0.7-2.9-3.2-4.6-6.2-3.9c-3.2,0.7-4.7,3.3-4,6.4
					C61.2,31.4,63.7,33.1,66.9,32.4L66.9,32.4z M79,63.2l-6.4-29l-10.1,2.5l6.4,29L79,63.2z M53.6,69.3l9.8-2.4L52.8,27.7l-13.3,3.2
					l-0.4,11.4c-0.1,4.4-0.1,10.4-0.3,15.4h-0.1c-1.8-4.7-4.2-9.7-6.1-13.7l-4.8-10.1l-13.6,3.3l6.4,40.3l9.3-2.2l-2.5-14.4
					c-0.8-4.6-1.9-10.4-2.9-16.1h0.1c2.1,5.3,4.4,10.8,6.4,14.8l6.2,13l7.9-1.9l0.7-14.8c0.3-4.7,0.6-10.9,0.6-16.5h0.1
					c1.4,6.2,2.6,11.5,3.7,15.9L53.6,69.3z"/>
				<path id="Fill-3" class="st1" d="M127.6,71.1c0,0.6,0,1.1-0.1,1.5c-0.6,1.7-2.1,2.8-3.6,2.8c-1.8,0-2.9-1-2.9-2.9
					c0-2.6,2.4-3.9,6.5-3.9v2.5H127.6z M137.6,65c0-7.5-3.3-13.2-13-13.2c-5.8,0-9.8,1.7-11.6,2.8l1.8,6.8c1.9-1.1,5-2.2,7.9-2.2
					c3.7,0,4.6,1.4,4.6,2.5v0.3c-9.6,0-16.3,3.6-16.3,11.5c0,5,3.6,9.4,9.3,9.4c3,0,5.8-1,7.8-3.3h0.3l0.6,2.6h9.3
					c-0.3-1.5-0.4-4.3-0.4-7.2L137.6,65L137.6,65z M90.9,39.2H80.5v43h10.4v-8.5l2.1-2.9l5.5,11.4h12.6L100,64.4l9.7-11.9H97.4
					L92.8,61c-0.7,1.1-1.2,2.4-1.8,3.6h-0.1C90.9,64.6,90.9,39.2,90.9,39.2z"/>
				<path id="Fill-5" class="st2" d="M148.1,53.5c-2.8-1.7-2.4-5.3-0.1-9.1c1.8-3.3,4.7-6.1,7.6-4.3c2.6,1.5,1.9,5.4,0,9
					C153.2,53.2,150.6,55,148.1,53.5L148.1,53.5z M144.4,60c6.8,4.2,15.4,3.6,20.5-5.7c4.2-7.6,2.1-16.1-5.4-20.8
					c-8.3-5-16.3-2.8-20.8,5.4C134.1,47.4,137,55.6,144.4,60L144.4,60z M125.6,32.4c-0.3,0.6-0.7,1.2-1.1,1.7
					c-1.2,1.5-3.3,2.1-5.1,1c-2.4-1.5-3.2-4.6-1-8.6c1.8-3.3,4.7-5.3,7.6-3.5c1.9,1.1,2.4,3.3,1.7,5.4c-0.1,0.4-0.4,0.8-0.6,1.2
					L125.6,32.4z M139.5,7.2l-7.3,13.3H132c-0.1-2.4-1.9-4.4-4.6-6.1c-5.7-3.5-13.6-1.7-18.3,6.9c-4.4,8-2.5,15.9,3,19.4
					c2.8,1.7,6.4,2.4,9.4,0.4h0.1l-1.5,3.6l7.9,4.8c0.8-1.8,2.5-5,4.2-8.2l15.8-28.8L139.5,7.2z"/>
			</g>
		</g>
	</g>
</g>
<title>Iedereen-spelt-vectorieel</title>
<desc>Created with Sketch.</desc>
</svg>
