<?xml version="1.0" encoding="UTF-8"?>
<svg width="19px" height="19px" viewBox="0 0 19 19" version="1.1" xmlns="http://www.w3.org/2000/svg" xmlns:xlink="http://www.w3.org/1999/xlink">
    <!-- Generator: Sketch 50.2 (55047) - http://www.bohemiancoding.com/sketch -->
    <title>Fill 21</title>
    <desc>Created with Sketch.</desc>
    <defs></defs>
    <g id="LEERLING_HOME_versie1-Copy" stroke="none" stroke-width="1" fill="none" fill-rule="evenodd">
        <g id="12_B-LLN__IS_close-alert-overlay" transform="translate(-821.000000, -671.000000)" fill="#FFFFFF">
            <path d="M839.40625,672.1875 C839.734,672.1875 840,671.920313 840,671.59375 C840,671.267187 839.734,671 839.40625,671 L833.46875,671 C833.396906,671 832.875,671 832.875,671.59375 L832.875,677.53125 C832.875,677.857813 833.141,678.125 833.46875,678.125 C833.7965,678.125 834.0625,677.857813 834.0625,677.53125 L834.0625,672.995 C836.86975,674.330938 838.8125,677.186875 838.8125,680.5 C838.8125,685.089687 835.090875,688.8125 830.5,688.8125 C825.909125,688.8125 822.1875,685.089687 822.1875,680.5 C822.1875,676.314062 825.285687,672.858438 829.3125,672.2825 L829.3125,671.083125 C824.627219,671.670938 821,675.655 821,680.5 C821,685.74875 825.253625,690 830.5,690 C835.746375,690 840,685.74875 840,680.5 C840,676.919688 838.01925,673.808437 835.095625,672.1875 L839.40625,672.1875 Z" id="Fill-21"></path>
        </g>
    </g>
</svg>