<?xml version="1.0" encoding="utf-8"?>
<!-- Generator: Adobe Illustrator 21.1.0, SVG Export Plug-In . SVG Version: 6.00 Build 0)  -->
<svg version="1.1" id="Layer_1" xmlns="http://www.w3.org/2000/svg" xmlns:xlink="http://www.w3.org/1999/xlink" x="0px" y="0px"
	 viewBox="0 0 1000 1000" style="enable-background:new 0 0 1000 1000;" xml:space="preserve">
<style type="text/css">
	.st0{fill:#D9EDF2;}
</style>
<g>
	<polygon class="st0" points="500,10 45.1,215.9 500,421.8 902.1,239 918.5,231.6 954.9,215.9 	"/>
	<path class="st0" d="M389,711.2c25.1,0,45.4-20.3,45.4-45.4c0-25.1-20.3-45.4-45.4-45.4c-25,0.1-45.4,20.4-45.4,45.4
		C343.6,690.9,363.9,711.2,389,711.2z"/>
	<path class="st0" d="M610.8,711.2c25.1,0,45.4-20.3,45.4-45.4c0-25.1-20.3-45.4-45.4-45.4c-25.1,0.1-45.4,20.4-45.4,45.4
		C565.4,690.9,585.7,711.2,610.8,711.2z"/>
	<path class="st0" d="M500,465.7L219.4,334.2c-66.5,69.7-107.5,164-107.5,267.7C111.9,815.9,286,990,500,990
		s388.1-174.1,388.1-388.1c0-105.3-42.3-200.8-110.6-270.8L500,465.7z M500.1,929.5c-176.9,0-321.4-140.9-327.3-316.4l0.8,0
		c-0.2-2.6-0.4-5.2-0.4-7.8c0-60.7,42.9-134.4,119.5-146.2c54,41.3,199.2,128.4,529,201.4C793.7,813,660.3,929.5,500.1,929.5z"/>
</g>
<path class="st0" d="M441.8,795.3c-1.4-1-2.1-1.6-2.1-1.6c-10.2-10-26.9-10.1-37.2-0.2c-10.3,9.9-10.4,26.1-0.2,36.1
	c5.2,5.1,14,11.5,26.5,17.6c19.9,9.7,43.6,15.5,70.9,15.5c27.2,0,51-5.7,71.1-15.4c12.6-6.1,21.5-12.4,26.7-17.4
	c10.4-9.9,10.5-26,0.3-36.1s-26.9-10.2-37.2-0.3c-1.5,1.4-5.9,4.6-13.2,8.1c-13,6.3-28.9,10.1-47.7,10.1c-18.8,0-34.4-3.8-47.2-10
	C448.2,799.5,444.6,797.3,441.8,795.3z"/>
</svg>
