<?xml version="1.0" encoding="utf-8"?>
<!-- Generator: Adobe Illustrator 21.1.0, SVG Export Plug-In . SVG Version: 6.00 Build 0)  -->
<svg version="1.1" id="Layer_1" xmlns="http://www.w3.org/2000/svg" xmlns:xlink="http://www.w3.org/1999/xlink" x="0px" y="0px"
	 viewBox="0 0 41.2 42" style="enable-background:new 0 0 41.2 42;" xml:space="preserve">
<style type="text/css">
	.st0{fill:url(#Shape_1_);}
	.st1{fill:url(#Shape_7_);}
	.st2{fill:url(#Shape_8_);}
	.st3{fill:url(#Shape_9_);}
	.st4{fill:url(#Shape_10_);}
</style>
<linearGradient id="Shape_1_" gradientUnits="userSpaceOnUse" x1="-2702.9502" y1="598.9827" x2="-2701.7004" y2="600.4768" gradientTransform="matrix(29.4466 0 0 20.7492 79581.9531 -12416.5479)">
	<stop  offset="0" style="stop-color:#67C189"/>
	<stop  offset="0.225" style="stop-color:#61B882"/>
	<stop  offset="0.6" style="stop-color:#519E70"/>
	<stop  offset="1" style="stop-color:#3B7C57"/>
</linearGradient>
<path id="Shape_2_" class="st0" d="M20.3,23.9c-2.7,3.7-10.4,7.5-13.4,5.6c-1.8-1.1-2.7-4.8-2.6-8.4h-4c0,8.6,2.3,17.1,6.7,19.7
	c4.9,2.9,14.9-0.4,22.7-5.6L20.3,23.9z"/>
<linearGradient id="Shape_7_" gradientUnits="userSpaceOnUse" x1="-2546.1775" y1="633.9512" x2="-2545.9302" y2="635.4092" gradientTransform="matrix(11.0229 0 0 16.907 28069.3145 -10725.9854)">
	<stop  offset="0" style="stop-color:#67C189"/>
	<stop  offset="0.225" style="stop-color:#61B882"/>
	<stop  offset="0.6" style="stop-color:#519E70"/>
	<stop  offset="1" style="stop-color:#3B7C57"/>
</linearGradient>
<path id="Shape_3_" class="st1" d="M7.2,13.1c1-0.6,2.5-0.5,4.1-0.1L4.1,4.2C1.5,8.1,0.3,14.6,0.3,21.1h4
	C4.3,17.7,5.3,14.2,7.2,13.1z"/>
<linearGradient id="Shape_8_" gradientUnits="userSpaceOnUse" x1="-2663.1416" y1="671.0783" x2="-2662.906" y2="675.429" gradientTransform="matrix(20.767 0 0 14.0713 55333.8867 -9448.875)">
	<stop  offset="0" style="stop-color:#67C189"/>
	<stop  offset="0.225" style="stop-color:#61B882"/>
	<stop  offset="0.6" style="stop-color:#519E70"/>
	<stop  offset="1" style="stop-color:#3B7C57"/>
</linearGradient>
<path id="Shape_4_" class="st2" d="M21.2,21.2c0,0.1,0,0.3,0,0.4c0,0.7-0.3,1.5-0.9,2.3l9.4,11.3c6.3-4.1,11.3-9.5,11.4-14H21.2z"/>
<linearGradient id="Shape_9_" gradientUnits="userSpaceOnUse" x1="-2721.2869" y1="597.3762" x2="-2721.2065" y2="598.6594" gradientTransform="matrix(37.0345 0 0 20.9559 100801.5625 -12529.3926)">
	<stop  offset="0" style="stop-color:#67C189"/>
	<stop  offset="0.225" style="stop-color:#61B882"/>
	<stop  offset="0.6" style="stop-color:#519E70"/>
	<stop  offset="1" style="stop-color:#3B7C57"/>
</linearGradient>
<path id="Shape_5_" class="st3" d="M7,1.3C5.9,1.9,4.9,3,4.1,4.3l7.3,8.8c4.2,1.2,9.5,5.1,9.9,8.1h19.9v-0.1C41.1,11,16-3.9,7,1.3z"
	/>
<linearGradient id="Shape_10_" gradientUnits="userSpaceOnUse" x1="-2665.1028" y1="670.2971" x2="-2665.5806" y2="673.387" gradientTransform="matrix(21.1132 0 0 14.2586 56301.4297 -9546.4277)">
	<stop  offset="0" style="stop-color:#67C189"/>
	<stop  offset="0.225" style="stop-color:#61B882"/>
	<stop  offset="0.6" style="stop-color:#519E70"/>
	<stop  offset="1" style="stop-color:#3B7C57"/>
</linearGradient>
<path id="Shape_6_" class="st4" d="M41,20.6C40.7,16.2,35.8,11,29.7,7L20,18.7c0.7,0.9,1.1,1.7,1.2,2.5h19.9L41,20.6L41,20.6
	L41,20.6z"/>
</svg>
