<?xml version="1.0" encoding="utf-8"?>
<!-- Generator: Adobe Illustrator 21.1.0, SVG Export Plug-In . SVG Version: 6.00 Build 0)  -->
<svg version="1.1" id="Layer_1" xmlns="http://www.w3.org/2000/svg" xmlns:xlink="http://www.w3.org/1999/xlink" x="0px" y="0px"
	 viewBox="0 0 40.8 42" style="enable-background:new 0 0 40.8 42;" xml:space="preserve">
<style type="text/css">
	.st0{fill:url(#Shape_1_);}
	.st1{fill:url(#Shape_7_);}
	.st2{fill:url(#Shape_8_);}
	.st3{fill:url(#Shape_9_);}
	.st4{fill:url(#Shape_10_);}
</style>
<g>
	
		<linearGradient id="Shape_1_" gradientUnits="userSpaceOnUse" x1="-959.662" y1="1371.8237" x2="-958.4122" y2="1370.3297" gradientTransform="matrix(29.4466 0 0 -20.7492 28247.7324 28476.0273)">
		<stop  offset="0" style="stop-color:#67C189"/>
		<stop  offset="0.225" style="stop-color:#61B882"/>
		<stop  offset="0.6" style="stop-color:#519E70"/>
		<stop  offset="1" style="stop-color:#3B7C57"/>
	</linearGradient>
	<path id="Shape_2_" class="st0" d="M20,23.8c-2.7,3.7-10.4,7.5-13.4,5.6c-1.8-1.1-2.7-4.8-2.6-8.4H0c0,8.6,2.3,17.1,6.7,19.7
		c4.9,2.9,14.9-0.4,22.7-5.6L20,23.8z"/>
	
		<linearGradient id="Shape_7_" gradientUnits="userSpaceOnUse" x1="-902.6891" y1="1356.802" x2="-902.4418" y2="1355.344" gradientTransform="matrix(11.0229 0 0 -16.907 9953.0254 22931.5703)">
		<stop  offset="0" style="stop-color:#67C189"/>
		<stop  offset="0.225" style="stop-color:#61B882"/>
		<stop  offset="0.6" style="stop-color:#519E70"/>
		<stop  offset="1" style="stop-color:#3B7C57"/>
	</linearGradient>
	<path id="Shape_3_" class="st1" d="M6.9,13c1-0.6,2.5-0.5,4.1-0.1L3.8,4.2C1.2,8.1,0,14.6,0,21.1h4C4.1,17.6,5.1,14.1,6.9,13z"/>
	
		<linearGradient id="Shape_8_" gradientUnits="userSpaceOnUse" x1="-944.8066" y1="1341.3821" x2="-944.571" y2="1337.0314" gradientTransform="matrix(20.767 0 0 -14.0713 19648.9844 18868.9453)">
		<stop  offset="0" style="stop-color:#67C189"/>
		<stop  offset="0.225" style="stop-color:#61B882"/>
		<stop  offset="0.6" style="stop-color:#519E70"/>
		<stop  offset="1" style="stop-color:#3B7C57"/>
	</linearGradient>
	<path id="Shape_4_" class="st2" d="M20.9,21.1c0,0.1,0,0.3,0,0.4c0,0.7-0.3,1.5-0.9,2.3l9.4,11.3c6.3-4.2,11.3-9.6,11.4-14.1H20.9z
		"/>
	
		<linearGradient id="Shape_9_" gradientUnits="userSpaceOnUse" x1="-965.764" y1="1372.5659" x2="-965.6837" y2="1371.2826" gradientTransform="matrix(37.0345 0 0 -20.9559 35786.3555 28752.4062)">
		<stop  offset="0" style="stop-color:#67C189"/>
		<stop  offset="0.225" style="stop-color:#61B882"/>
		<stop  offset="0.6" style="stop-color:#519E70"/>
		<stop  offset="1" style="stop-color:#3B7C57"/>
	</linearGradient>
	<path id="Shape_5_" class="st3" d="M6.7,1.2c-1.1,0.6-2.1,1.7-2.9,3L11,13c4.2,1.2,9.5,5.1,9.9,8.1h19.9V21
		C40.8,10.9,15.7-4,6.7,1.2z"/>
	
		<linearGradient id="Shape_10_" gradientUnits="userSpaceOnUse" x1="-945.3839" y1="1340.4636" x2="-945.8616" y2="1337.3737" gradientTransform="matrix(21.1132 0 0 -14.2586 19992.332 19124.0879)">
		<stop  offset="0" style="stop-color:#67C189"/>
		<stop  offset="0.225" style="stop-color:#61B882"/>
		<stop  offset="0.6" style="stop-color:#519E70"/>
		<stop  offset="1" style="stop-color:#3B7C57"/>
	</linearGradient>
	<path id="Shape_6_" class="st4" d="M40.8,20.5c-0.3-4.4-5.2-9.6-11.3-13.7l-9.7,11.7c0.7,0.9,1.1,1.7,1.2,2.5h19.9L40.8,20.5
		L40.8,20.5L40.8,20.5z"/>
</g>
</svg>
