<?xml version="1.0" encoding="utf-8"?>
<!-- Generator: Adobe Illustrator 21.1.0, SVG Export Plug-In . SVG Version: 6.00 Build 0)  -->
<svg version="1.1" id="Layer_1" xmlns="http://www.w3.org/2000/svg" xmlns:xlink="http://www.w3.org/1999/xlink" x="0px" y="0px"
	 viewBox="0 0 168 42" style="enable-background:new 0 0 168 42;" xml:space="preserve">
<style type="text/css">
	.st0{fill:#00AE74;}
	.st1{fill:#59595B;}
	.st2{fill:url(#Shape_7_);}
	.st3{fill:url(#Shape_8_);}
	.st4{fill:url(#Shape_9_);}
	.st5{fill:url(#Shape_10_);}
	.st6{fill:url(#Shape_11_);}
</style>
<title>pelckmans-educatief-logo</title>
<desc>Created with Sketch.</desc>
<g id="Symbols">
	<g id="pelckmans-educatief-logo" transform="translate(45.000000, 19.000000)">
		<g>
			<path id="Shape" class="st0" d="M2.5-12.1h6c3.6,0,5.9,2,5.9,5.7c0,3.2-2.3,5.9-7.2,5.9H6.3v-2.1h1.1c2.7,0,4.3-1.2,4.3-3.6
				c0-2.4-1.1-3.6-3.7-3.6H5.2V5.3H2.5L2.5-12.1L2.5-12.1z M15.8-1.2c0-5.4,2.7-7.3,6.3-7.3s5.1,2.4,5.1,6.8v0.9h-8.8
				c0.1,3.7,2,4.3,4.6,4.3c1,0,2.6-0.3,3.5-0.5l0.4,2c-0.7,0.2-2.4,0.6-4.5,0.6C18.4,5.6,15.8,4,15.8-1.2z M24.5-2.6
				c0-2.4-0.9-4-2.7-4c-1.8,0-3.1,1.4-3.3,4H24.5z M30.1-13.3h2.6V5.3h-2.6V-13.3z M35.1-1.5c0-4.3,2.6-7,6.6-7c1.9,0,3,0.4,3.8,0.8
				l-0.7,2c-0.8-0.3-1.6-0.6-3.1-0.6c-2.3,0-4,1.6-4,4.8c0,3.3,1,4.9,4.7,4.9c1.1,0,2-0.2,2.6-0.3l0.4,2c-0.8,0.2-1.8,0.5-3.2,0.5
				C37.2,5.6,35.1,3.5,35.1-1.5z M48.2-13.3h2.6V5.3h-2.6V-13.3z M54.5,3l-3.7-4.7l5.4-6.4h2.9l-5.5,6.3l2.5,3
				c1.1,1.4,2.3,2.1,3.3,2.4L59,5.5C57.7,5.5,56.2,5.2,54.5,3z M61.7-8.1h2.6v1.5c1.1-0.9,2.7-1.8,4.3-1.8c2.1,0,3.2,0.8,3.7,2
				c1.1-0.9,2.7-2,4.8-2c4,0,4.2,2.9,4.2,5.2v8.6h-2.6v-8.2c0-2-0.3-3.3-2.4-3.3c-1.3,0-2.6,0.7-3.6,1.4c0.1,0.5,0.1,1,0.1,1.5v8.6
				h-2.5v-8.2c0-2-0.3-3.3-2.4-3.3c-1.1,0-2.6,0.8-3.6,1.4V5.3h-2.6V-8.1z M84,1.6c0-3.3,3-4,5.3-4.1l2.9-0.1V-4
				c0-1.9-1-2.3-3.1-2.3c-1.3,0-2.7,0.4-3.5,0.6l-0.5-2c0.9-0.4,2.6-0.9,4.6-0.9c3.3,0,5.1,1,5.1,3.8v7c0,0.8,0.6,1,1.2,1.1l-0.1,2
				c-0.2,0-0.3,0-0.5,0c-1.3,0-2.6-0.5-2.9-1.6c-0.7,0.5-2.1,1.7-4.4,1.7C85.5,5.5,84,4.2,84,1.6z M92.3,2.3v-3.1l-2.9,0.1
				c-1.8,0.1-2.9,0.9-2.9,2.1c0,1.5,0.9,2,2.2,2C90.1,3.4,91.7,2.5,92.3,2.3z M99.2-8.1h2.6v1.5c1.1-0.8,2.7-1.8,4.6-1.8
				c4,0,4.3,2.6,4.3,5.2v8.6h-2.5v-8.2c0-2.2-0.3-3.3-2.5-3.3c-1.4,0-2.9,0.8-3.8,1.4V5.3h-2.6L99.2-8.1L99.2-8.1z M113.5,5l0.4-2
				c1.1,0.2,2.5,0.5,3.6,0.5c2.1,0,3-0.7,3-1.7c0-2.6-6.7-1.7-6.7-6.4c0-2.6,2.2-3.9,4.9-3.9c1.5,0,2.9,0.4,3.6,0.6l-0.5,2
				c-0.8-0.2-1.8-0.5-3.2-0.5c-1.6,0-2.3,0.8-2.3,1.6c0,2.6,6.7,1.9,6.7,6.3c0,3.2-3.1,4-5.3,4C115.9,5.6,114.5,5.3,113.5,5z"/>
			<path id="Shape_1_" class="st1" d="M2,14c0-2.2,1.4-3.3,3.1-3.3c0.5,0,0.8,0,1.1,0.1V8.4h1.2v8.8H6.3v-0.6
				c-0.3,0.3-0.8,0.7-1.5,0.7C3.5,17.3,2,16.8,2,14z M6.3,15.7v-3.9c-0.3-0.1-0.6-0.2-1.1-0.2c-1.4,0-1.9,1.1-1.9,2.4
				c0,1.6,0.7,2.2,1.7,2.2C5.4,16.3,6,15.9,6.3,15.7z M8.8,14.1c0-2.6,1.3-3.5,3-3.5s2.4,1.2,2.4,3.2v0.4H10c0,1.7,1,2,2.2,2
				c0.5,0,1.3-0.2,1.6-0.3l0.2,1c-0.3,0.1-1.1,0.3-2.1,0.3C10,17.3,8.8,16.6,8.8,14.1z M12.9,13.4c0-1.1-0.4-1.9-1.3-1.9
				c-0.9,0-1.5,0.6-1.6,1.9H12.9z M15.7,10.8h1.2v0.7c0.5-0.4,1.3-0.9,2.2-0.9c1.9,0,2,1.3,2,2.5v4.1h-1.2v-3.9c0-1-0.2-1.6-1.2-1.6
				c-0.7,0-1.4,0.4-1.8,0.7v4.8h-1.2V10.8z M23,8.4h1.2v8.8H23V8.4z M26,16.1l-1.7-2.2l2.6-3h1.4l-2.6,2.9l1.2,1.4
				c0.5,0.6,1.1,1,1.6,1.2l-0.2,0.9C27.5,17.2,26.8,17.1,26,16.1z M31.3,10.8h1.3l1.3,4.1l0.4,1.3l0.4-1.3l1.4-4.1h1.3L35,17.2h-1.6
				L31.3,10.8z M38,14.1c0-2.6,1.3-3.5,3-3.5s2.4,1.2,2.4,3.2v0.4h-4.2c0,1.7,1,2,2.2,2c0.5,0,1.3-0.2,1.6-0.3l0.2,1
				c-0.3,0.1-1.1,0.3-2.1,0.3C39.3,17.3,38,16.6,38,14.1z M42.2,13.4c0-1.1-0.4-1.9-1.3-1.9c-0.9,0-1.5,0.6-1.6,1.9H42.2z
				 M44.9,10.8h1.2v0.9c0.3-0.5,0.9-1,1.8-1c0.4,0,0.6,0.1,0.8,0.1l-0.2,1c-0.2-0.1-0.4-0.1-0.8-0.1c-0.7,0-1.3,0.5-1.6,0.9v4.5
				h-1.2V10.8z M48.9,14c0-2.2,1.4-3.3,3.1-3.3c0.5,0,0.8,0,1.1,0.1V8.4h1.2v8.8h-1.2v-0.6c-0.3,0.3-0.8,0.7-1.5,0.7
				C50.5,17.3,48.9,16.8,48.9,14z M53.2,15.7v-3.9c-0.3-0.1-0.6-0.2-1.1-0.2c-1.4,0-1.9,1.1-1.9,2.4c0,1.6,0.7,2.2,1.7,2.2
				C52.3,16.3,52.9,15.9,53.2,15.7z M55.7,14.1c0-2.6,1.3-3.5,3-3.5s2.4,1.2,2.4,3.2v0.4h-4.2c0,1.7,1,2,2.2,2
				c0.5,0,1.3-0.2,1.6-0.3l0.2,1c-0.3,0.1-1.1,0.3-2.1,0.3C56.9,17.3,55.7,16.6,55.7,14.1z M59.8,13.4c0-1.1-0.4-1.9-1.3-1.9
				c-0.9,0-1.5,0.6-1.6,1.9H59.8z M62.6,10.8h1.2v0.9c0.3-0.5,0.9-1,1.8-1c0.4,0,0.6,0.1,0.8,0.1l-0.2,1c-0.2-0.1-0.4-0.1-0.8-0.1
				c-0.7,0-1.3,0.5-1.6,0.9v4.5h-1.2V10.8z"/>
		</g>
		
			<linearGradient id="Shape_7_" gradientUnits="userSpaceOnUse" x1="-1004.653" y1="1352.8185" x2="-1003.4032" y2="1351.3243" gradientTransform="matrix(29.4466 0 0 -20.7492 29527.8281 28062.793)">
			<stop  offset="0" style="stop-color:#67C189"/>
			<stop  offset="0.225" style="stop-color:#61B882"/>
			<stop  offset="0.6" style="stop-color:#519E70"/>
			<stop  offset="1" style="stop-color:#3B7C57"/>
		</linearGradient>
		<path id="Shape_2_" class="st2" d="M-24.7,4.9c-2.7,3.7-10.4,7.5-13.4,5.6c-1.8-1.1-2.7-4.8-2.6-8.4h-4c0,8.6,2.3,17.1,6.7,19.7
			c4.9,2.9,14.9-0.4,22.7-5.6L-24.7,4.9z"/>
		
			<linearGradient id="Shape_8_" gradientUnits="userSpaceOnUse" x1="-947.665" y1="1337.7954" x2="-947.4177" y2="1336.3374" gradientTransform="matrix(11.0229 0 0 -16.907 10404.0566 22591.3379)">
			<stop  offset="0" style="stop-color:#67C189"/>
			<stop  offset="0.225" style="stop-color:#61B882"/>
			<stop  offset="0.6" style="stop-color:#519E70"/>
			<stop  offset="1" style="stop-color:#3B7C57"/>
		</linearGradient>
		<path id="Shape_3_" class="st3" d="M-37.8-5.9c1-0.6,2.5-0.5,4.1-0.1l-7.2-8.8c-2.6,3.9-3.8,10.4-3.8,16.9h4
			C-40.7-1.3-39.7-4.8-37.8-5.9z"/>
		
			<linearGradient id="Shape_9_" gradientUnits="userSpaceOnUse" x1="-989.7938" y1="1322.3741" x2="-989.5582" y2="1318.0234" gradientTransform="matrix(20.767 0 0 -14.0713 20538.5 18582.5898)">
			<stop  offset="0" style="stop-color:#67C189"/>
			<stop  offset="0.225" style="stop-color:#61B882"/>
			<stop  offset="0.6" style="stop-color:#519E70"/>
			<stop  offset="1" style="stop-color:#3B7C57"/>
		</linearGradient>
		<path id="Shape_4_" class="st4" d="M-23.8,2.2c0,0.1,0,0.3,0,0.4c0,0.7-0.3,1.5-0.9,2.3l9.4,11.3C-9,12.1-4,6.7-3.9,2.2H-23.8z"/>
		
			<linearGradient id="Shape_10_" gradientUnits="userSpaceOnUse" x1="-1010.7568" y1="1353.5605" x2="-1010.6766" y2="1352.2773" gradientTransform="matrix(37.0345 0 0 -20.9559 37407.9102 28335.2441)">
			<stop  offset="0" style="stop-color:#67C189"/>
			<stop  offset="0.225" style="stop-color:#61B882"/>
			<stop  offset="0.6" style="stop-color:#519E70"/>
			<stop  offset="1" style="stop-color:#3B7C57"/>
		</linearGradient>
		<path id="Shape_5_" class="st5" d="M-38-17.7c-1.1,0.6-2.1,1.7-2.9,3l7.3,8.8c4.2,1.2,9.5,5.1,9.9,8.1h19.9V2.1
			C-3.9-8-29-22.9-38-17.7z"/>
		
			<linearGradient id="Shape_11_" gradientUnits="userSpaceOnUse" x1="-990.3713" y1="1321.4558" x2="-990.849" y2="1318.3658" gradientTransform="matrix(21.1132 0 0 -14.2586 20897.4238 18834.1738)">
			<stop  offset="0" style="stop-color:#67C189"/>
			<stop  offset="0.225" style="stop-color:#61B882"/>
			<stop  offset="0.6" style="stop-color:#519E70"/>
			<stop  offset="1" style="stop-color:#3B7C57"/>
		</linearGradient>
		<path id="Shape_6_" class="st6" d="M-4,1.6C-4.3-2.8-9.2-8-15.3-12L-25-0.3c0.7,0.9,1.1,1.7,1.2,2.5h19.9L-4,1.6L-4,1.6L-4,1.6z"
			/>
	</g>
</g>
</svg>
