<?xml version="1.0" encoding="utf-8"?>
<!-- Generator: Adobe Illustrator 21.1.0, SVG Export Plug-In . SVG Version: 6.00 Build 0)  -->
<svg version="1.1" id="Layer_1" xmlns="http://www.w3.org/2000/svg" xmlns:xlink="http://www.w3.org/1999/xlink" x="0px" y="0px"
	 viewBox="0 0 1000 1000" style="enable-background:new 0 0 1000 1000;" xml:space="preserve">
<style type="text/css">
	.st0{fill:#D9EDF2;}
</style>
<g>
	<path class="st0" d="M500,215.9c-213.1,0-385.9,172.8-385.9,385.9S286.9,987.8,500,987.8S885.9,815,885.9,601.8
		S713.1,215.9,500,215.9z M499.8,943.4C323,943.4,178.5,802.5,172.5,627c1.2,1.8,2.5,3.7,3.8,5.4c58.3,76.3,200.7,65.5,318.2-24.1
		c16.6-12.7,31.7-26.2,45.4-40.4c-1.9,63.4-12.9,103.8-52.6,135.4c53.8-23.9,85.5-72,104.3-119.7c78.4,71.4,178.2,89.6,227.3,39.9
		c3-3.1,5.8-6.4,8.4-9.9c0,0.7,0.1,1.5,0.1,2.2C827.5,796.5,680.5,943.4,499.8,943.4z"/>
	<ellipse class="st0" cx="354.6" cy="730.8" rx="40.1" ry="38.3"/>
	<ellipse class="st0" cx="645.4" cy="730.8" rx="40.1" ry="38.3"/>
	<path class="st0" d="M560.5,835.4c-1.5,1.4-5.9,4.6-13.2,8.1c-13,6.3-28.9,10.1-47.7,10.1c-18.8,0-34.4-3.8-47.2-10
		c-4.3-2.1-7.8-4.2-10.7-6.3c-1.4-1-2.1-1.6-2.1-1.6c-10.2-10-26.9-10.1-37.2-0.2c-10.3,9.9-10.4,26.1-0.2,36.1
		c5.2,5.1,14,11.5,26.5,17.6c19.9,9.7,43.6,15.5,70.9,15.5c27.2,0,51-5.7,71.1-15.4c12.6-6.1,21.5-12.4,26.7-17.4
		c10.4-9.9,10.5-26,0.3-36.1C587.5,825.7,570.9,825.5,560.5,835.4z"/>
</g>
</svg>
