<?xml version="1.0" encoding="UTF-8"?>
<svg width="31px" height="56px" viewBox="0 0 31 56" version="1.1" xmlns="http://www.w3.org/2000/svg" xmlns:xlink="http://www.w3.org/1999/xlink">
    <!-- Generator: Sketch 50.2 (55047) - http://www.bohemiancoding.com/sketch -->
    <title>Fill 1 Copy</title>
    <desc>Created with Sketch.</desc>
    <defs></defs>
    <g id="Page-1" stroke="none" stroke-width="1" fill="none" fill-rule="evenodd">
        <g id="10_splitter" transform="translate(-879.000000, -240.000000)" fill="#C7EBF5" stroke="#C7EBF5">
            <path d="M882.848712,268.089794 C882.510183,268.355466 882.720292,268.189513 882.848712,268.089794 M877.332162,273.511409 C877.430777,273.383725 877.572076,273.203054 877.332162,273.511409 M916.65267,258.326545 C916.639055,258.239337 916.622496,258.152129 916.598947,258.066025 C916.304574,256.999659 915.279788,256.344679 914.222252,256.426 C913.285042,255.752621 912.333482,255.102425 911.41283,254.410648 C911.39296,254.391514 911.032721,254.110756 910.940361,254.032747 C910.715534,253.850604 910.495858,253.660365 910.279862,253.467919 C909.892761,253.121663 909.524795,252.754432 909.180011,252.366228 C909.106785,252.284907 909.035768,252.199907 908.965854,252.114907 C908.831915,251.932028 908.710118,251.742157 908.593472,251.547871 C908.521719,251.429018 908.455853,251.306117 908.394771,251.18248 C908.405442,251.18064 908.236177,250.74644 908.198645,250.598886 C907.886977,249.411091 906.596887,248.701652 905.423443,249.02399 C904.226817,249.352952 903.537248,250.609925 903.847811,251.79956 C904.40896,253.93818 905.895912,255.648487 907.552864,257.05559 C907.365201,257.05375 907.179746,257.050806 906.993923,257.047495 C904.410064,256.997451 901.829517,256.827451 899.244185,256.89994 C896.484806,256.978317 893.680168,257.342604 891.080486,258.30226 C888.957688,259.086396 886.905173,260.142091 884.949432,261.276899 C877.439976,265.635091 870.35589,272.578247 868.884025,281.483399 C868.601058,283.200697 868.487725,284.927931 868.611362,286.665836 C868.700041,287.892267 869.571754,288.921469 870.866995,288.921469 C872.030504,288.921469 873.21094,287.893371 873.122628,286.665836 C873.043883,285.562673 873.051611,284.459142 873.151329,283.357451 C873.161632,283.253316 873.203213,282.920675 873.217931,282.790415 C873.243689,282.628878 873.269447,282.466605 873.299252,282.306539 C873.395659,281.767101 873.519664,281.232446 873.660595,280.704046 C873.791959,280.219067 873.943929,279.741078 874.108778,279.266402 C874.191202,279.030168 874.28025,278.796509 874.371138,278.564322 C874.384752,278.529733 874.398735,278.496248 874.412718,278.462028 C874.44841,278.375556 874.505077,278.243088 874.532675,278.183109 C874.955836,277.232652 875.45627,276.316784 876.004908,275.433297 C876.270579,275.007192 876.549498,274.590654 876.839823,274.181844 C876.986274,273.975783 877.134196,273.772665 877.286534,273.571388 L877.286902,273.571388 C877.376318,273.457686 877.46647,273.345825 877.556622,273.233227 C878.221905,272.410822 878.939807,271.63147 879.685674,270.88229 C880.439637,270.128328 881.232605,269.416313 882.049858,268.734839 C882.24672,268.570726 882.446157,268.409557 882.646331,268.250228 C882.722868,268.189513 882.802717,268.126591 882.880358,268.065509 C882.886613,268.061093 882.891397,268.057045 882.896548,268.05263 C883.335532,267.718148 883.785923,267.39397 884.238521,267.075679 C885.952876,265.877949 887.760326,264.815263 889.625179,263.869957 C890.059379,263.650649 890.496891,263.439805 890.937715,263.233744 C891.154447,263.132921 891.372651,263.033202 891.591223,262.935323 C891.685422,262.892639 891.781462,262.851427 891.877133,262.808743 C891.961397,262.775258 892.044557,262.741405 892.128822,262.709392 C893.360773,262.228828 894.649023,261.907593 895.950151,261.687181 C896.09697,261.662896 896.244892,261.640082 896.390975,261.618372 C896.405326,261.6169 896.421148,261.61506 896.436971,261.612852 C896.747902,261.574952 897.058466,261.545514 897.371605,261.517181 C898.045351,261.457202 898.723513,261.425557 899.400203,261.407159 C900.69986,261.369258 902.000989,261.399432 903.301014,261.44138 C904.630108,261.483696 905.962514,261.541835 907.294184,261.562073 C906.262406,262.216317 905.321148,263.009284 904.697446,264.060196 C904.069695,265.118467 904.452012,266.528146 905.507339,267.146697 C906.57297,267.771136 907.966826,267.39397 908.593472,266.336803 C908.618494,266.294119 908.65897,266.234876 908.699815,266.179682 C908.756114,266.118967 908.814252,266.059357 908.873495,266.00085 C908.968062,265.908122 909.069621,265.820546 909.171915,265.735178 C909.249556,265.678143 909.329773,265.624788 909.409254,265.569593 C910.111701,265.093813 910.873759,264.70708 911.63177,264.328443 C913.172445,263.560498 914.792968,262.886751 916.183881,261.85755 C916.676955,261.493263 917.051913,261.122721 917.220074,260.509689 C917.422087,259.777068 917.235528,258.852001 916.65267,258.326545" id="Fill-1-Copy" transform="translate(892.930211, 268.933839) rotate(106.000000) translate(-892.930211, -268.933839) "></path>
        </g>
    </g>
</svg>