<?xml version="1.0" encoding="UTF-8"?>
<svg width="31px" height="56px" viewBox="0 0 31 56" version="1.1" xmlns="http://www.w3.org/2000/svg" xmlns:xlink="http://www.w3.org/1999/xlink">
    <!-- Generator: Sketch 50.2 (55047) - http://www.bohemiancoding.com/sketch -->
    <title>Fill 1</title>
    <desc>Created with Sketch.</desc>
    <defs></defs>
    <g id="Page-1" stroke="none" stroke-width="1" fill="none" fill-rule="evenodd">
        <g id="10_splitter" transform="translate(-526.000000, -239.000000)" fill="#C7EBF5" stroke="#C7EBF5">
            <path d="M532.848712,267.089794 C532.510183,267.355466 532.720292,267.189513 532.848712,267.089794 M527.332162,272.511409 C527.430777,272.383725 527.572076,272.203054 527.332162,272.511409 M566.65267,257.326545 C566.639055,257.239337 566.622496,257.152129 566.598947,257.066025 C566.304574,255.999659 565.279788,255.344679 564.222252,255.426 C563.285042,254.752621 562.333482,254.102425 561.41283,253.410648 C561.39296,253.391514 561.032721,253.110756 560.940361,253.032747 C560.715534,252.850604 560.495858,252.660365 560.279862,252.467919 C559.892761,252.121663 559.524795,251.754432 559.180011,251.366228 C559.106785,251.284907 559.035768,251.199907 558.965854,251.114907 C558.831915,250.932028 558.710118,250.742157 558.593472,250.547871 C558.521719,250.429018 558.455853,250.306117 558.394771,250.18248 C558.405442,250.18064 558.236177,249.74644 558.198645,249.598886 C557.886977,248.411091 556.596887,247.701652 555.423443,248.02399 C554.226817,248.352952 553.537248,249.609925 553.847811,250.79956 C554.40896,252.93818 555.895912,254.648487 557.552864,256.05559 C557.365201,256.05375 557.179746,256.050806 556.993923,256.047495 C554.410064,255.997451 551.829517,255.827451 549.244185,255.89994 C546.484806,255.978317 543.680168,256.342604 541.080486,257.30226 C538.957688,258.086396 536.905173,259.142091 534.949432,260.276899 C527.439976,264.635091 520.35589,271.578247 518.884025,280.483399 C518.601058,282.200697 518.487725,283.927931 518.611362,285.665836 C518.700041,286.892267 519.571754,287.921469 520.866995,287.921469 C522.030504,287.921469 523.21094,286.893371 523.122628,285.665836 C523.043883,284.562673 523.051611,283.459142 523.151329,282.357451 C523.161632,282.253316 523.203213,281.920675 523.217931,281.790415 C523.243689,281.628878 523.269447,281.466605 523.299252,281.306539 C523.395659,280.767101 523.519664,280.232446 523.660595,279.704046 C523.791959,279.219067 523.943929,278.741078 524.108778,278.266402 C524.191202,278.030168 524.28025,277.796509 524.371138,277.564322 C524.384752,277.529733 524.398735,277.496248 524.412718,277.462028 C524.44841,277.375556 524.505077,277.243088 524.532675,277.183109 C524.955836,276.232652 525.45627,275.316784 526.004908,274.433297 C526.270579,274.007192 526.549498,273.590654 526.839823,273.181844 C526.986274,272.975783 527.134196,272.772665 527.286534,272.571388 L527.286902,272.571388 C527.376318,272.457686 527.46647,272.345825 527.556622,272.233227 C528.221905,271.410822 528.939807,270.63147 529.685674,269.88229 C530.439637,269.128328 531.232605,268.416313 532.049858,267.734839 C532.24672,267.570726 532.446157,267.409557 532.646331,267.250228 C532.722868,267.189513 532.802717,267.126591 532.880358,267.065509 C532.886613,267.061093 532.891397,267.057045 532.896548,267.05263 C533.335532,266.718148 533.785923,266.39397 534.238521,266.075679 C535.952876,264.877949 537.760326,263.815263 539.625179,262.869957 C540.059379,262.650649 540.496891,262.439805 540.937715,262.233744 C541.154447,262.132921 541.372651,262.033202 541.591223,261.935323 C541.685422,261.892639 541.781462,261.851427 541.877133,261.808743 C541.961397,261.775258 542.044557,261.741405 542.128822,261.709392 C543.360773,261.228828 544.649023,260.907593 545.950151,260.687181 C546.09697,260.662896 546.244892,260.640082 546.390975,260.618372 C546.405326,260.6169 546.421148,260.61506 546.436971,260.612852 C546.747902,260.574952 547.058466,260.545514 547.371605,260.517181 C548.045351,260.457202 548.723513,260.425557 549.400203,260.407159 C550.69986,260.369258 552.000989,260.399432 553.301014,260.44138 C554.630108,260.483696 555.962514,260.541835 557.294184,260.562073 C556.262406,261.216317 555.321148,262.009284 554.697446,263.060196 C554.069695,264.118467 554.452012,265.528146 555.507339,266.146697 C556.57297,266.771136 557.966826,266.39397 558.593472,265.336803 C558.618494,265.294119 558.65897,265.234876 558.699815,265.179682 C558.756114,265.118967 558.814252,265.059357 558.873495,265.00085 C558.968062,264.908122 559.069621,264.820546 559.171915,264.735178 C559.249556,264.678143 559.329773,264.624788 559.409254,264.569593 C560.111701,264.093813 560.873759,263.70708 561.63177,263.328443 C563.172445,262.560498 564.792968,261.886751 566.183881,260.85755 C566.676955,260.493263 567.051913,260.122721 567.220074,259.509689 C567.422087,258.777068 567.235528,257.852001 566.65267,257.326545" id="Fill-1" transform="translate(542.930211, 267.933839) scale(-1, 1) rotate(106.000000) translate(-542.930211, -267.933839) "></path>
        </g>
    </g>
</svg>